<svg width="24" height="25" viewBox="0 0 24 25" fill="none" xmlns="http://www.w3.org/2000/svg">
<path d="M9.87849 13.2068C9.48797 13.5974 8.8548 13.5974 8.46428 13.2068C8.07376 12.8163 8.07376 12.1832 8.46428 11.7926L14.1211 6.13577C14.5117 5.74525 15.1448 5.74525 15.5353 6.13577C15.9259 6.5263 15.9259 7.15946 15.5353 7.54999L9.87849 13.2068Z" fill="white"/>
<path d="M8.46428 13.2068C8.07376 12.8163 8.07376 12.1832 8.46428 11.7926C8.8548 11.4021 9.48812 11.4023 9.87864 11.7928L15.5355 17.4496C15.926 17.8402 15.926 18.4733 15.5355 18.8638C15.145 19.2544 14.5118 19.2544 14.1213 18.8638L8.46428 13.2068Z" fill="white"/>
</svg>
