<svg width="24" height="24" viewBox="0 0 24 24" fill="none" xmlns="http://www.w3.org/2000/svg">
<path d="M12.7071 14.1215C13.0976 14.512 13.0976 15.1452 12.7071 15.5357C12.3166 15.9262 11.6834 15.9262 11.2929 15.5357L5.63602 9.87887C5.24549 9.48834 5.24549 8.85518 5.63602 8.46465C6.02654 8.07413 6.65971 8.07413 7.05023 8.46465L12.7071 14.1215Z" fill="#62626A"/>
<path d="M12.7071 15.5357C12.3166 15.9262 11.6834 15.9262 11.2929 15.5357C10.9023 15.1452 10.9025 14.5119 11.293 14.1214L16.9499 8.4645C17.3404 8.07398 17.9736 8.07398 18.3641 8.4645C18.7546 8.85503 18.7546 9.48819 18.3641 9.87872L12.7071 15.5357Z" fill="#62626A"/>
</svg>
